<svg width="170" height="52" viewBox="0 0 170 52" fill="none" xmlns="http://www.w3.org/2000/svg">
<g clip-path="url(#clip0_127_194)">
<path d="M49.28 1.63131H1.5953V50.3687H49.28V1.63131ZM0.797647 0H50.8737V52H0V0H0.797647Z" fill="#575756"/>
<path d="M32.7729 47.8513C32.9256 44.2989 33.0025 41.9293 33.0036 40.7425V34.5521C33.0036 32.9559 32.9267 30.578 32.7729 27.4184C34.4871 27.5756 36.2614 27.6537 38.096 27.6526C39.5477 27.6526 41.1833 27.5745 43.0029 27.4184C42.9195 27.6949 42.871 27.9806 42.8585 28.2691C42.8658 28.558 42.9144 28.8445 43.0029 29.1197C40.6957 28.9647 38.1955 28.8866 35.5022 28.8856C35.4076 30.4914 35.36 33.0262 35.3595 36.49C37.3215 36.49 39.648 36.4114 42.3391 36.2542C42.2516 36.5302 42.2036 36.8171 42.1963 37.1065C42.2087 37.3948 42.2567 37.6805 42.3391 37.9572C40.1518 37.8005 37.8253 37.7224 35.3595 37.723C35.3595 38.8336 35.407 41.7204 35.5022 46.3833C39.2945 46.3833 41.8417 46.3053 43.144 46.1491C43.0602 46.4356 43.0119 46.7313 43.0004 47.0296C43.0174 47.308 43.0655 47.5836 43.144 47.8513C41.3729 47.6951 39.6587 47.6168 38.0016 47.6163C36.5424 47.6163 34.8 47.6946 32.7746 47.8513M9.66049 47.7635C9.8148 43.525 9.89169 39.1161 9.89115 34.5368C9.89115 30.7275 9.8718 28.2565 9.83309 27.1239H10.292C15.9414 33.5289 20.7308 38.8105 24.6602 42.9686H24.6844V38.3193C24.6844 34.4928 24.6174 30.8884 24.4835 27.5061C24.7676 27.5983 25.0639 27.6477 25.3626 27.6526C25.6313 27.6495 25.8973 27.6 26.149 27.5061C25.9947 32.1648 25.9178 35.5868 25.9183 37.7721C25.9183 41.81 25.9377 45.2285 25.9764 48.0275H25.5175C21.8021 43.5255 16.9985 38.1353 11.1066 31.8568H11.0969C11.0969 40.3549 11.1733 45.6571 11.326 47.7635C11.0697 47.6893 10.8069 47.64 10.5412 47.6163C10.2422 47.6241 9.94573 47.6737 9.66049 47.7635ZM31.3559 16.165V16.1272C31.4849 16.1851 31.9479 16.2141 32.7487 16.2141H36.199C36.9518 16.2141 37.4454 16.1851 37.6798 16.1272V16.1208C36.9373 14.5171 35.8649 12.0708 34.4626 8.78186H34.4481C33.5297 10.9591 32.499 13.4201 31.3559 16.165ZM25.8498 25.404C28.522 19.5816 31.5191 12.7409 34.8409 4.88184H35.4159C36.0719 6.43777 37.3118 9.40637 39.1356 13.7877C40.9594 18.1689 42.6407 22.0411 44.1796 25.404C43.6929 25.3134 43.1994 25.2641 42.7044 25.2567C42.1719 25.2716 41.6409 25.3208 41.1148 25.404C40.7986 24.3031 39.7881 21.6819 38.0831 17.5404C37.7532 17.4808 37.1782 17.4527 36.3507 17.4527H32.8746C32.1796 17.4439 31.4847 17.4732 30.7929 17.5404C30.5779 17.9696 30.1181 19.1521 29.4138 21.0879C28.6137 23.2271 28.1387 24.666 27.9685 25.404C27.6219 25.3112 27.2651 25.2617 26.9063 25.2567C26.5495 25.2531 26.1942 25.3027 25.8522 25.404M9.31853 5.14661C9.79305 5.24014 10.2753 5.28918 10.759 5.29308C11.2198 5.29059 11.6792 5.24152 12.1301 5.14661C11.9768 9.68617 11.9002 12.0303 11.9002 12.1789V14.3164C11.9002 14.487 11.9147 14.5707 11.9429 14.5707C12.0591 14.5707 12.5624 14.1297 13.456 13.2549C15.9078 10.8711 18.4212 8.16834 20.9961 5.14661C21.3843 5.22733 21.7783 5.27631 22.1745 5.29308C22.6415 5.29793 23.1076 5.24878 23.5633 5.14661C22.6492 6.0174 21.1123 7.49499 18.9524 9.5794C16.8017 11.6542 15.2744 13.2409 14.3706 14.3397C18.1435 18.7253 21.3031 22.4134 23.8496 25.404C22.9253 25.3066 22.3664 25.2567 22.1793 25.2567C21.639 25.2706 21.1001 25.3198 20.5663 25.404C17.0638 21.0442 14.8507 18.3414 13.927 17.2957C13.0032 16.2501 12.4527 15.6186 12.2752 15.4013C12.1139 15.2121 11.9978 15.1188 11.9115 15.1188C11.8943 15.2119 11.8894 15.3069 11.897 15.4013V18.3718C11.897 20.0208 11.9736 22.3603 12.1268 25.404C11.4284 25.3066 10.9541 25.2567 10.7146 25.2567C10.2438 25.2659 9.77454 25.3152 9.31207 25.404C9.46531 22.4478 9.5422 20.248 9.54274 18.8047V12.1918C9.54274 9.72051 9.46585 7.37213 9.31207 5.14661" fill="#575756"/>
<path d="M58.284 22.0909V27.4267H56.8944V14.2764H58.284V15.7588C59.1583 14.6149 60.3608 14.043 61.8916 14.043C63.2686 14.043 64.3942 14.5178 65.2685 15.4675C66.1427 16.4171 66.5802 17.5661 66.5807 18.9144C66.5807 20.2745 66.1433 21.4296 65.2685 22.3798C64.3937 23.33 63.268 23.8048 61.8916 23.8043C60.3608 23.8059 59.1583 23.2348 58.284 22.0909ZM58.284 17.3933V20.4515C58.56 21.0747 59.0168 21.6012 59.5954 21.9629C60.1791 22.3485 60.8641 22.5529 61.5641 22.5504C62.6062 22.5504 63.4616 22.2038 64.1305 21.5106C64.8008 20.8147 65.1672 19.8819 65.1491 18.9168C65.1491 17.9027 64.8085 17.0427 64.1273 16.3366C63.4578 15.6429 62.6024 15.2963 61.5609 15.2968C60.8722 15.3058 60.1998 15.5072 59.62 15.8782C59.0402 16.2492 58.5763 16.7749 58.2808 17.3957L58.284 17.3933Z" fill="#575756"/>
<path d="M70.5528 23.5757H69.1656V14.2764H70.5528V16.0469C70.9182 15.4256 71.4537 14.9214 72.0965 14.5935C72.7606 14.2308 73.5057 14.0414 74.2628 14.043V15.4481C73.8701 15.4432 73.4793 15.5019 73.1054 15.622C72.5307 15.767 71.9964 16.0399 71.5424 16.4203C71.1161 16.7644 70.7771 17.2039 70.5528 17.7032V23.5757Z" fill="#575756"/>
<path d="M77.0187 15.4916C77.9574 14.5291 79.1672 14.0479 80.648 14.0479C82.1288 14.0479 83.3386 14.5291 84.2773 15.4916C85.2161 16.4284 85.6858 17.5771 85.6863 18.9378C85.6869 20.2984 85.2172 21.4474 84.2773 22.3847C83.3256 23.3343 82.1159 23.8092 80.648 23.8092C79.1801 23.8092 77.9704 23.3343 77.0187 22.3847C76.0799 21.4479 75.6105 20.2989 75.6105 18.9378C75.6105 17.5766 76.0799 16.4279 77.0187 15.4916ZM84.254 18.9378C84.254 17.9119 83.9131 17.0457 83.2313 16.3391C82.5495 15.6454 81.6879 15.2988 80.6464 15.2993C79.6049 15.2998 78.743 15.6456 78.0607 16.3367C77.3784 17.0422 77.0375 17.9084 77.038 18.9354C77.038 19.9499 77.3789 20.81 78.0607 21.5155C78.7419 22.2082 79.6038 22.5548 80.6464 22.5553C81.689 22.5558 82.5506 22.2092 83.2313 21.5155C83.9136 20.8094 84.2545 19.9494 84.254 18.9354V18.9378Z" fill="#575756"/>
<path d="M90.3932 15.4913V23.5754H89.0004V15.4913H87.1454V14.276H89.0004V12.7164C89.0004 11.8579 89.2321 11.1808 89.6956 10.6851C90.1591 10.1893 90.815 9.94225 91.6635 9.94386C92.4485 9.94386 93.1045 10.0659 93.6314 10.31V11.5808C93.0141 11.3243 92.4738 11.1958 92.0103 11.1953C90.9301 11.1953 90.39 11.7922 90.39 12.986V14.2736H93.6314V15.4913H90.3932Z" fill="#575756"/>
<path d="M99.9408 23.8064C98.4891 23.8064 97.2669 23.3504 96.2744 22.4383C95.2969 21.5396 94.8081 20.3713 94.8081 18.9334C94.8081 17.5475 95.2455 16.386 96.1203 15.4486C97.0086 14.5113 98.1471 14.0427 99.5359 14.0427C100.226 14.0303 100.908 14.1864 101.523 14.4974C102.072 14.7723 102.543 15.1792 102.894 15.6812C103.544 16.6214 103.894 17.7357 103.898 18.8779V19.2625H96.2356C96.312 20.2637 96.7139 21.0629 97.4414 21.66C98.1689 22.2572 99.0918 22.5555 100.21 22.5549C101.27 22.5606 102.309 22.2595 103.202 21.6882V22.9203C102.443 23.5105 101.356 23.8059 99.9408 23.8064ZM96.2558 18.127H102.491C102.451 17.4053 102.165 16.7189 101.68 16.1818C101.205 15.5916 100.471 15.2965 99.4811 15.2965C98.5552 15.2965 97.7963 15.5788 97.2043 16.1432C96.623 16.721 96.3069 17.3823 96.2558 18.127Z" fill="#575756"/>
<path d="M109.669 23.8067C108.93 23.8075 108.194 23.7137 107.479 23.5274C106.765 23.3413 106.209 23.1135 105.81 22.8442V21.4197C106.938 22.176 108.271 22.5721 109.63 22.5552C110.427 22.5552 111.054 22.4238 111.511 22.1609C111.968 21.898 112.197 21.5353 112.197 21.0728C112.197 20.6753 111.978 20.348 111.54 20.091C111.412 19.988 111.084 19.8723 110.556 19.7441C110.347 19.6798 110.135 19.6285 109.92 19.5904C109.572 19.5003 109.36 19.4496 109.283 19.4359C108.113 19.1413 107.277 18.7926 106.774 18.3896C106.272 17.9867 106.021 17.3995 106.022 16.628C106.022 15.8194 106.35 15.1871 107.006 14.7311C107.662 14.275 108.581 14.0457 109.762 14.043C111.164 14.043 112.296 14.3187 113.158 14.8703V16.2384C112.153 15.6239 110.998 15.2976 109.82 15.2952C109.035 15.2952 108.44 15.417 108.035 15.6606C107.63 15.9042 107.427 16.2379 107.427 16.6618C107.427 17.1248 107.665 17.4714 108.141 17.7016C108.256 17.7365 108.369 17.7785 108.479 17.8271C108.614 17.8847 108.752 17.9328 108.894 17.9712L109.318 18.087C109.619 18.188 109.929 18.2589 110.244 18.2987C111.402 18.5815 112.254 18.9281 112.801 19.3385C113.347 19.7489 113.62 20.3335 113.621 21.0921C113.621 21.9399 113.248 22.6009 112.502 23.0751C111.756 23.5628 110.812 23.8067 109.669 23.8067Z" fill="#575756"/>
<path d="M119.486 23.8068C118.747 23.8075 118.011 23.7137 117.296 23.5275C116.583 23.3413 116.027 23.1136 115.628 22.8442V21.4197C116.756 22.1761 118.089 22.5721 119.448 22.5553C120.245 22.5553 120.872 22.4239 121.329 22.161C121.786 21.8981 122.014 21.5354 122.014 21.0729C122.014 20.6753 121.795 20.348 121.358 20.091C121.229 19.988 120.901 19.8724 120.374 19.7442C120.165 19.6799 119.952 19.6286 119.737 19.5905C119.39 19.5003 119.178 19.4496 119.1 19.4359C117.929 19.1414 117.093 18.7926 116.592 18.3897C116.091 17.9868 115.84 17.3995 115.84 16.628C115.84 15.8195 116.168 15.1872 116.824 14.7311C117.48 14.2751 118.399 14.0473 119.583 14.0479C120.985 14.0479 122.117 14.3236 122.979 14.8752V16.2433C121.974 15.6288 120.819 15.3025 119.641 15.3001C118.856 15.3001 118.261 15.4219 117.856 15.6655C117.451 15.9091 117.249 16.2417 117.25 16.6634C117.25 17.1264 117.489 17.473 117.965 17.7032C118.079 17.7373 118.19 17.7781 118.299 17.8255C118.434 17.8831 118.573 17.9313 118.714 17.9696L119.138 18.0855C119.439 18.1865 119.749 18.2574 120.064 18.2972C121.222 18.5799 122.075 18.9265 122.621 19.3369C123.167 19.7474 123.441 20.3314 123.441 21.089C123.441 21.9367 123.068 22.5977 122.322 23.072C121.575 23.5618 120.63 23.8068 119.486 23.8068Z" fill="#575756"/>
<path d="M126.355 11.7735C126.181 11.5842 126.085 11.3368 126.085 11.0801C126.085 10.8234 126.181 10.576 126.355 10.3868C126.446 10.2957 126.555 10.2235 126.674 10.1742C126.793 10.125 126.921 10.0996 127.05 10.0996C127.179 10.0996 127.307 10.125 127.426 10.1742C127.545 10.2235 127.654 10.2957 127.745 10.3868C127.836 10.4778 127.908 10.5859 127.958 10.7049C128.007 10.8239 128.033 10.9514 128.033 11.0801C128.033 11.2089 128.007 11.3364 127.958 11.4553C127.908 11.5743 127.836 11.6824 127.745 11.7735C127.555 11.9469 127.307 12.0431 127.05 12.0431C126.793 12.0431 126.545 11.9469 126.355 11.7735ZM127.745 23.5757H126.355V14.2764H127.745V23.5757Z" fill="#575756"/>
<path d="M132.01 15.4916C132.948 14.5258 134.158 14.043 135.639 14.043C137.12 14.043 138.33 14.5242 139.268 15.4868C140.207 16.4235 140.677 17.5722 140.677 18.9329C140.677 20.2935 140.207 21.4425 139.268 22.3798C138.316 23.3295 137.106 23.8043 135.639 23.8043C134.172 23.8043 132.962 23.3295 132.01 22.3798C131.07 21.443 130.6 20.2941 130.601 18.9329C130.601 17.5717 131.071 16.4246 132.01 15.4916ZM139.245 18.9377C139.245 17.9119 138.904 17.0456 138.222 16.339C137.541 15.6453 136.679 15.2987 135.637 15.2992C134.595 15.2998 133.732 15.6456 133.05 16.3366C132.368 17.0422 132.028 17.9084 132.028 18.9353C132.028 19.9499 132.369 20.8099 133.05 21.5155C133.732 22.2081 134.594 22.5547 135.636 22.5552C136.677 22.5558 137.539 22.2092 138.22 21.5155C138.903 20.8094 139.244 19.9493 139.244 18.9353L139.245 18.9377Z" fill="#575756"/>
<path d="M144.646 17.2992V23.5765H143.257V14.2764H144.646V15.7008C145.637 14.5956 146.878 14.043 148.371 14.043C149.515 14.043 150.393 14.3799 151.004 15.0538C151.615 15.7277 151.92 16.6805 151.921 17.9124V23.5733H150.531V18.2231C150.531 16.3109 149.65 15.3548 147.888 15.3548C147.243 15.3548 146.619 15.5536 146.016 15.9511C145.399 16.3498 144.942 16.7991 144.646 17.2992Z" fill="#575756"/>
<path d="M157.786 23.8067C156.796 23.8067 155.953 23.5371 155.258 22.9979C154.577 22.434 154.236 21.6767 154.236 20.726C154.236 19.7892 154.596 19.0381 155.316 18.4726C156.036 17.921 156.95 17.6452 158.059 17.6452C159.239 17.6377 160.398 17.9504 161.414 18.5498V17.6267C161.414 16.0735 160.392 15.2969 158.349 15.2969C157.26 15.2954 156.197 15.6244 155.3 16.2401V14.8921C156.214 14.3282 157.327 14.0459 158.639 14.0454C159.912 14.0454 160.925 14.3437 161.678 14.9403C162.43 15.537 162.807 16.3874 162.807 17.4915V21.3231C162.807 21.6832 162.887 21.9656 163.049 22.1706C163.124 22.2695 163.222 22.349 163.334 22.4025C163.446 22.456 163.569 22.4819 163.694 22.478C163.88 22.4824 164.066 22.443 164.234 22.3629V23.4414C164.028 23.5822 163.72 23.653 163.307 23.653C162.887 23.6666 162.474 23.5337 162.14 23.2772C161.825 23.0266 161.629 22.6578 161.552 22.1706C160.611 23.2613 159.356 23.8067 157.786 23.8067ZM158.172 22.5553C158.81 22.5567 159.438 22.4049 160.005 22.1126C160.549 21.8451 161.03 21.4642 161.414 20.9956V19.7079C160.462 19.092 159.452 18.784 158.384 18.784C157.535 18.784 156.863 18.9509 156.368 19.2846C155.874 19.6183 155.626 20.0744 155.625 20.6527C155.625 21.2558 155.863 21.7242 156.339 22.0579C156.815 22.3916 157.426 22.5574 158.172 22.5553Z" fill="#575756"/>
<path d="M168.63 23.8063C167.985 23.8063 167.467 23.6202 167.076 23.2478C166.686 22.8755 166.49 22.2979 166.488 21.5151V10.0991H167.877V21.1883C167.877 22.1004 168.282 22.5565 169.093 22.5565C169.412 22.5574 169.726 22.4708 170 22.3062V23.5391C169.666 23.7167 169.209 23.8058 168.63 23.8063Z" fill="#575756"/>
<path d="M61.1778 42.6016C59.7503 42.6016 58.5674 42.1397 57.6291 41.2158C56.6903 40.279 56.2209 39.111 56.2209 37.7117C56.2209 36.3248 56.6968 35.1694 57.6485 34.2455C58.5873 33.3087 59.7702 32.8403 61.1972 32.8403C62.2779 32.8403 63.217 33.0649 64.0144 33.5139V34.8016C63.2178 34.3375 62.3124 34.0917 61.3899 34.0894C60.3103 34.0894 59.4164 34.436 58.7083 35.1292C58.0017 35.7982 57.6485 36.6655 57.6485 37.7311C57.6485 38.7698 58.0023 39.636 58.7099 40.3297C59.4298 41.0106 60.3237 41.3507 61.3916 41.3502C62.3832 41.3621 63.3563 41.0822 64.1894 40.5454V41.8162C63.3135 42.3409 62.3096 42.6027 61.1778 42.6016Z" fill="#575756"/>
<path d="M67.5453 34.2841C68.4841 33.3216 69.6939 32.8403 71.1746 32.8403C72.6554 32.8403 73.8652 33.3216 74.804 34.2841C75.7428 35.2214 76.2124 36.3704 76.213 37.7311C76.2135 39.0917 75.7438 40.2404 74.804 41.1772C73.8523 42.1268 72.6425 42.6016 71.1746 42.6016C69.7068 42.6016 68.497 42.1268 67.5453 41.1772C66.606 40.2404 66.1363 39.0917 66.1363 37.7311C66.1363 36.3704 66.606 35.2214 67.5453 34.2841ZM74.7806 37.7311C74.7806 36.7041 74.4397 35.8376 73.7579 35.1316C73.0767 34.4384 72.215 34.0918 71.173 34.0918C70.131 34.0918 69.2691 34.4373 68.5873 35.1284C67.905 35.8339 67.5641 36.7004 67.5646 37.7278C67.5646 38.7419 67.9055 39.6003 68.5873 40.3032C69.2685 40.9969 70.1305 41.3435 71.173 41.343C72.2156 41.3424 73.0772 40.9958 73.7579 40.3032C74.4402 39.6025 74.7811 38.7451 74.7806 37.7311Z" fill="#575756"/>
<path d="M81.9586 42.6019C81.2195 42.6027 80.4833 42.5088 79.7681 42.3226C79.0541 42.137 78.4978 41.9092 78.0994 41.6393V40.2148C79.2281 40.9712 80.5605 41.3672 81.9199 41.3504C82.7178 41.3504 83.3448 41.2189 83.8007 40.956C84.2567 40.6932 84.4852 40.3305 84.4863 39.868C84.4863 39.4704 84.2674 39.1431 83.8298 38.8861C83.7012 38.7837 83.3733 38.668 82.8458 38.5393C82.6371 38.475 82.4245 38.4236 82.2095 38.3855C81.8621 38.2965 81.6497 38.2452 81.5723 38.2318C80.4023 37.9367 79.5662 37.588 79.064 37.1856C78.5618 36.7832 78.311 36.196 78.3115 35.4239C78.3115 34.6154 78.6395 33.9831 79.2955 33.527C79.9515 33.071 80.8712 32.8432 82.0546 32.8438C83.4563 32.8438 84.5884 33.1198 85.4509 33.6719V35.04C84.4461 34.4255 83.2911 34.0992 82.1127 34.0968C81.3277 34.0968 80.7327 34.2186 80.3278 34.4622C79.923 34.7058 79.7205 35.0398 79.7205 35.4642C79.7205 35.9261 79.9585 36.2724 80.4343 36.5031C80.549 36.5385 80.6616 36.5804 80.7714 36.6287C80.9062 36.6866 81.045 36.7348 81.1868 36.7727L81.611 36.8886C81.9119 36.9895 82.222 37.0604 82.5369 37.1003C83.6951 37.3825 84.5473 37.7291 85.0936 38.1401C85.6399 38.5511 85.9133 39.1351 85.9138 39.8921C85.9138 40.7393 85.5407 41.4003 84.7944 41.8751C84.0486 42.3596 83.1033 42.6019 81.9586 42.6019Z" fill="#575756"/>
<path d="M90.0044 42.3715H88.6188V33.0713H90.0085V34.4572C90.7806 33.3798 91.8995 32.8409 93.3652 32.8403C94.1244 32.8403 94.7645 33.0013 95.2855 33.3232C95.794 33.6286 96.1742 34.1075 96.3558 34.6712C96.7265 34.11 97.2348 33.6526 97.8325 33.3425C98.4836 33.002 99.2098 32.8299 99.9448 32.8419C100.987 32.8419 101.797 33.166 102.376 33.8141C102.956 34.4623 103.243 35.3832 103.24 36.577V42.3715H101.851V36.8836C101.851 35.0594 101.08 34.1473 99.5359 34.1473C98.9697 34.1473 98.407 34.3429 97.8478 34.734C97.3158 35.0944 96.8816 35.5808 96.584 36.1496C96.584 36.2776 96.584 36.4257 96.5937 36.5923C96.6034 36.7589 96.6058 36.8876 96.6123 36.9778C96.6187 37.0679 96.6219 37.1387 96.6219 37.1894V42.3715H95.2323V36.8836C95.2323 35.0594 94.4605 34.1473 92.9168 34.1473C92.3791 34.1473 91.8261 34.3397 91.2578 34.7243C90.7353 35.0644 90.3047 35.5273 90.0036 36.0724L90.0044 42.3715Z" fill="#575756"/>
<path d="M110.804 42.6015C109.352 42.6015 108.13 42.1455 107.138 41.2334C106.16 40.3353 105.671 39.1672 105.671 37.7293C105.671 36.3424 106.109 35.1806 106.983 34.2438C107.871 33.307 109.01 32.8386 110.399 32.8386C111.088 32.8258 111.771 32.9811 112.386 33.2909C112.935 33.566 113.406 33.9728 113.757 34.4748C114.085 34.9512 114.338 35.4743 114.508 36.0264C114.673 36.5598 114.758 37.1147 114.759 37.673V38.0577H107.097C107.174 39.0589 107.578 39.858 108.307 40.4552C109.036 41.0523 109.959 41.3506 111.076 41.3501C112.135 41.3558 113.174 41.0551 114.066 40.4841V41.7163C113.306 42.307 112.219 42.6021 110.804 42.6015ZM107.119 36.9221H113.351C113.312 36.2009 113.028 35.5146 112.544 34.977C112.068 34.3868 111.335 34.0917 110.345 34.0917C109.419 34.0917 108.66 34.3742 108.068 34.9391C107.486 35.5164 107.17 36.1774 107.119 36.9221Z" fill="#575756"/>
<path d="M121.069 42.6016C120.209 42.6016 119.556 42.3481 119.11 41.841C118.664 41.334 118.443 40.6314 118.445 39.7333V34.2841H116.245V33.0712H118.445V30.2021H119.831V33.0712H123.092V34.2841H119.831V39.3132C119.831 40.0579 119.953 40.5714 120.197 40.8536C120.455 41.1487 120.873 41.2962 121.451 41.2962C121.985 41.3047 122.511 41.172 122.976 40.9115V42.1782C122.579 42.461 121.943 42.6021 121.069 42.6016Z" fill="#575756"/>
<path d="M125.874 30.5682C125.7 30.379 125.603 30.1316 125.603 29.8749C125.603 29.6182 125.7 29.3708 125.874 29.1816C125.965 29.09 126.073 29.0173 126.192 28.9677C126.312 28.918 126.44 28.8923 126.569 28.8921C126.698 28.8919 126.826 28.9172 126.946 28.9665C127.065 29.0158 127.174 29.0881 127.265 29.1794C127.357 29.2707 127.429 29.379 127.479 29.4983C127.528 29.6176 127.553 29.7454 127.553 29.8744C127.553 30.0035 127.527 30.1312 127.477 30.2502C127.427 30.3693 127.354 30.4774 127.262 30.5682C127.073 30.7416 126.825 30.8378 126.568 30.8378C126.311 30.8378 126.063 30.7416 125.874 30.5682ZM127.262 42.3713H125.874V33.0711H127.262V42.3713Z" fill="#575756"/>
<path d="M135.074 42.6016C133.647 42.6016 132.464 42.1397 131.526 41.2158C130.587 40.279 130.117 39.111 130.117 37.7117C130.117 36.3248 130.593 35.1694 131.545 34.2455C132.484 33.3087 133.667 32.8403 135.094 32.8403C136.175 32.8403 137.114 33.0649 137.911 33.5139V34.8016C137.114 34.3376 136.209 34.0918 135.287 34.0894C134.206 34.0894 133.312 34.436 132.605 35.1292C131.897 35.7966 131.543 36.6631 131.543 37.7286C131.543 38.7674 131.897 39.6336 132.605 40.3273C133.325 41.0082 134.219 41.3483 135.287 41.3478C136.278 41.3597 137.251 41.0798 138.084 40.543V41.8138C137.211 42.3401 136.208 42.6027 135.074 42.6016Z" fill="#575756"/>
<path d="M144.068 42.6019C143.329 42.6026 142.593 42.5088 141.878 42.3226C141.165 42.137 140.608 41.9092 140.209 41.6393V40.2148C141.337 40.9705 142.668 41.3665 144.027 41.3504C144.825 41.3504 145.452 41.2189 145.908 40.956C146.365 40.6932 146.593 40.3305 146.593 39.868C146.593 39.4704 146.375 39.1431 145.937 38.8861C145.808 38.7837 145.48 38.668 144.953 38.5393C144.744 38.4751 144.532 38.4238 144.316 38.3855C143.97 38.2962 143.757 38.2447 143.68 38.2318C142.509 37.9367 141.673 37.588 141.172 37.1856C140.671 36.7832 140.42 36.196 140.419 35.4239C140.419 34.6154 140.747 33.9831 141.403 33.527C142.059 33.071 142.979 32.8432 144.162 32.8438C145.564 32.8438 146.696 33.1198 147.558 33.6719V35.04C146.553 34.4255 145.399 34.0992 144.22 34.0968C143.435 34.0968 142.84 34.2186 142.436 34.4622C142.031 34.7058 141.828 35.0398 141.827 35.4642C141.827 35.9261 142.065 36.2724 142.541 36.5031C142.656 36.5385 142.769 36.5804 142.879 36.6287C143.014 36.6866 143.152 36.7348 143.294 36.7727L143.719 36.8886C144.02 36.9897 144.33 37.0606 144.645 37.1003C145.802 37.3825 146.654 37.7291 147.201 38.1401C147.749 38.5511 148.022 39.1351 148.022 39.8921C148.022 40.7393 147.648 41.4003 146.902 41.8751C146.158 42.3596 145.213 42.6019 144.068 42.6019Z" fill="#575756"/>
</g>
<defs>
<clipPath id="clip0_127_194">
<rect width="170" height="52" fill="white"/>
</clipPath>
</defs>
</svg>
