<svg width="161" height="39" viewBox="0 0 161 39" fill="none" xmlns="http://www.w3.org/2000/svg">
<path d="M6.92627 32.611C6.92627 33.528 6.64135 34.2276 6.07151 34.7099C5.50167 35.1922 4.68761 35.4367 3.63612 35.4367H2.86277V38.4594H1.06506V29.9619H3.7718C4.80294 29.9619 5.58308 30.1861 6.119 30.6276C6.6617 31.0759 6.92627 31.7348 6.92627 32.611ZM2.86277 33.9627H3.45296C4.00923 33.9627 4.42305 33.854 4.6944 33.6367C4.96575 33.4193 5.10821 33.1001 5.10821 32.6789C5.10821 32.2578 4.99289 31.9453 4.76224 31.7416C4.53159 31.5378 4.17205 31.4427 3.67683 31.4427H2.86277V33.9627Z" fill="black"/>
<path d="M16.8645 35.199V38.4594H15.0668V29.9619H17.5361C18.6893 29.9619 19.5441 30.1725 20.0936 30.5936C20.6498 31.0148 20.9212 31.6533 20.9212 32.5091C20.9212 33.0118 20.7855 33.4533 20.5074 33.8405C20.236 34.2276 19.8426 34.5333 19.3406 34.7574C20.6159 36.6662 21.4503 37.9024 21.837 38.4594H19.8426L17.8142 35.199H16.8645ZM16.8645 33.7318H17.4479C18.0177 33.7318 18.4383 33.6367 18.7097 33.4465C18.981 33.2563 19.1167 32.9574 19.1167 32.5499C19.1167 32.1491 18.981 31.8638 18.7029 31.6872C18.4248 31.5174 17.9974 31.4291 17.4208 31.4291H16.878V33.7318H16.8645Z" fill="black"/>
<path d="M37.148 34.2006C37.148 35.6066 36.8021 36.6866 36.1033 37.4406C35.4046 38.1946 34.4074 38.575 33.1117 38.575C31.8092 38.575 30.812 38.1946 30.12 37.4406C29.4213 36.6866 29.0753 35.5998 29.0753 34.187C29.0753 32.7741 29.4213 31.6941 30.12 30.9469C30.8188 30.1998 31.816 29.8262 33.1252 29.8262C34.4277 29.8262 35.425 30.1998 36.1169 30.9537C36.8021 31.7077 37.148 32.7877 37.148 34.2006ZM30.9544 34.2006C30.9544 35.1515 31.1376 35.8647 31.4971 36.347C31.8567 36.8293 32.3926 37.067 33.1117 37.067C34.5498 37.067 35.2621 36.1093 35.2621 34.2006C35.2621 32.2851 34.5498 31.3273 33.1185 31.3273C32.3994 31.3273 31.8635 31.5651 31.4971 32.0473C31.1376 32.5364 30.9544 33.2496 30.9544 34.2006Z" fill="black"/>
<path d="M47.2084 38.4594H45.4379V29.9619H50.3019V31.4359H47.2084V33.6231H50.0848V35.0903H47.2084V38.4594Z" fill="black"/>
<path d="M63.3879 38.4594H58.5035V29.9619H63.3879V31.4359H60.3012V33.3038H63.1708V34.7778H60.3012V36.965H63.3879V38.4594Z" fill="black"/>
<path d="M76.6976 36.1027C76.6976 36.8702 76.4195 37.4747 75.87 37.9163C75.3205 38.3578 74.5539 38.5819 73.5703 38.5819C72.668 38.5819 71.8676 38.4121 71.1688 38.0725V36.3879C71.7387 36.6461 72.2271 36.8227 72.6206 36.9313C73.014 37.0332 73.3803 37.0876 73.706 37.0876C74.0994 37.0876 74.4047 37.0129 74.615 36.8634C74.8253 36.714 74.9338 36.4898 74.9338 36.191C74.9338 36.0211 74.8863 35.8785 74.7914 35.7494C74.6964 35.6204 74.5607 35.4981 74.3843 35.3758C74.2012 35.2536 73.8349 35.0634 73.2854 34.7985C72.7698 34.554 72.3763 34.323 72.1186 34.0989C71.8608 33.8747 71.6505 33.6098 71.4944 33.3177C71.3384 33.0188 71.2638 32.6724 71.2638 32.2717C71.2638 31.5177 71.5148 30.9267 72.0236 30.4988C72.5324 30.0709 73.2379 29.8535 74.1333 29.8535C74.5743 29.8535 74.9949 29.9079 75.3951 30.0097C75.7954 30.1116 76.216 30.2611 76.6501 30.4513L76.0667 31.8505C75.6122 31.6671 75.2391 31.5381 74.9406 31.4633C74.6421 31.3886 74.3504 31.3547 74.0655 31.3547C73.7263 31.3547 73.4617 31.4362 73.2854 31.5924C73.1022 31.7486 73.014 31.9592 73.014 32.2173C73.014 32.3735 73.0479 32.5162 73.1226 32.6317C73.1972 32.7471 73.3125 32.8626 73.4753 32.9713C73.6381 33.08 74.018 33.277 74.615 33.569C75.4087 33.9494 75.9514 34.3298 76.2431 34.7102C76.5552 35.077 76.6976 35.5457 76.6976 36.1027Z" fill="black"/>
<path d="M89.7836 36.1027C89.7836 36.8702 89.5054 37.4747 88.9559 37.9163C88.4064 38.3578 87.6399 38.5819 86.6562 38.5819C85.754 38.5819 84.9535 38.4121 84.2548 38.0725V36.3879C84.8246 36.6461 85.313 36.8227 85.7065 36.9313C86.0999 37.0332 86.4663 37.0876 86.7919 37.0876C87.1854 37.0876 87.4906 37.0129 87.7009 36.8634C87.9112 36.714 88.0198 36.4898 88.0198 36.191C88.0198 36.0211 87.9723 35.8785 87.8773 35.7494C87.7823 35.6204 87.6467 35.4981 87.4703 35.3758C87.2871 35.2536 86.9208 35.0634 86.3713 34.7985C85.8557 34.554 85.4623 34.323 85.2045 34.0989C84.9467 33.8747 84.7364 33.6098 84.5804 33.3177C84.4244 33.0188 84.3497 32.6724 84.3497 32.2717C84.3497 31.5177 84.6007 30.9267 85.1095 30.4988C85.6183 30.0709 86.3238 29.8535 87.2193 29.8535C87.6602 29.8535 88.0808 29.9079 88.4811 30.0097C88.8813 30.1116 89.3019 30.2611 89.7361 30.4513L89.1527 31.8505C88.6981 31.6671 88.325 31.5381 88.0266 31.4633C87.7281 31.3886 87.4364 31.3547 87.1514 31.3547C86.8123 31.3547 86.5477 31.4362 86.3713 31.5924C86.1881 31.7486 86.1 31.9592 86.1 32.2173C86.1 32.3735 86.1339 32.5162 86.2085 32.6317C86.2831 32.7471 86.3984 32.8626 86.5613 32.9713C86.7241 33.08 87.104 33.277 87.7009 33.569C88.4946 33.9494 89.0373 34.3298 89.329 34.7102C89.6343 35.077 89.7836 35.5457 89.7836 36.1027Z" fill="black"/>
<path d="M97.8563 38.4594V29.9619H99.654V38.4594H97.8563Z" fill="black"/>
<path d="M116.023 34.2006C116.023 35.6066 115.677 36.6866 114.979 37.4406C114.28 38.1946 113.283 38.575 111.987 38.575C110.685 38.575 109.687 38.1946 108.995 37.4406C108.297 36.6866 107.951 35.5998 107.951 34.187C107.951 32.7741 108.297 31.6941 108.995 30.9469C109.694 30.1998 110.691 29.8262 112.001 29.8262C113.303 29.8262 114.3 30.1998 114.992 30.9537C115.677 31.7077 116.023 32.7877 116.023 34.2006ZM109.837 34.2006C109.837 35.1515 110.02 35.8647 110.379 36.347C110.739 36.8293 111.275 37.067 111.994 37.067C113.432 37.067 114.144 36.1093 114.144 34.2006C114.144 32.2851 113.432 31.3273 112.001 31.3273C111.282 31.3273 110.746 31.5651 110.379 32.0473C110.013 32.5364 109.837 33.2496 109.837 34.2006Z" fill="black"/>
<path d="M131.843 38.4594H129.557L125.867 32.0336H125.812C125.887 33.168 125.921 33.9763 125.921 34.4654V38.4662H124.313V29.9619H126.579L130.263 36.3265H130.303C130.242 35.2193 130.215 34.445 130.215 33.9831V29.9619H131.836V38.4594H131.843Z" fill="black"/>
<path d="M145.709 38.4597L145.092 36.4355H141.999L141.381 38.4597H139.441L142.433 29.9282H144.631L147.636 38.4597H145.709ZM144.665 34.9275C144.095 33.0935 143.776 32.0611 143.701 31.8165C143.627 31.5788 143.579 31.3886 143.545 31.246C143.416 31.7418 143.05 32.9645 142.446 34.9207H144.665V34.9275Z" fill="black"/>
<path d="M155.254 38.4594V29.9619H157.052V36.9718H160.491V38.4594H155.254Z" fill="black"/>
<path d="M37.2159 11.7987C37.2159 9.88998 37.5551 8.13751 38.2471 6.53447C37.8468 4.89746 37.1345 3.56613 36.1102 2.54045C34.421 0.849111 32.1484 0.00683594 29.2925 0.00683594C27.5897 0.00683594 26.0227 0.332878 24.5981 0.984962C23.1667 1.64384 21.9863 2.56083 21.0501 3.75632C20.2564 2.54045 19.2049 1.60988 17.9025 0.964584C16.6 0.326085 15.1347 0.00683594 13.5269 0.00683594C12.0548 0.00683594 10.6913 0.25816 9.4634 0.774393C8.22875 1.28383 7.19083 2.02422 6.33607 2.98876V0.346463H0V23.2441H6.63456V11.7579C6.63456 9.76772 7.08229 8.27336 7.99132 7.26806C8.90035 6.26277 10.1146 5.76012 11.6478 5.76012C14.5377 5.76012 15.9826 7.56014 15.9826 11.167V23.2509H22.6104V11.7579C22.6104 9.76772 23.0649 8.27336 23.9672 7.26806C24.8762 6.26277 26.1109 5.76012 27.6643 5.76012C29.055 5.76012 30.1201 6.20163 30.8731 7.09825C31.6261 7.99486 31.9992 9.34658 31.9992 11.167V23.2509H38.6338V17.8984C37.6908 16.078 37.2159 14.047 37.2159 11.7987Z" fill="black"/>
<path d="M55.3356 16.4177C54.2298 17.5657 52.8391 18.1431 51.1635 18.1431C49.4608 18.1431 48.0633 17.5657 46.9576 16.4177C45.8518 15.2698 45.2955 13.7279 45.2955 11.7988C45.2955 9.86974 45.8518 8.32783 46.9576 7.17989C48.0633 6.03196 49.4608 5.45459 51.1635 5.45459C52.8391 5.45459 54.2298 6.03196 55.3356 7.17989C56.4413 8.32783 56.9976 9.86974 56.9976 11.7988C56.9976 13.7279 56.4481 15.2698 55.3356 16.4177Z" fill="black"/>
<path d="M84.6958 2.56767C82.9455 0.862739 80.6594 0.0136719 77.8306 0.0136719C76.2771 0.0136719 74.8389 0.271788 73.5364 0.801606C72.2339 1.32463 71.1417 2.07181 70.2666 3.03635V0.346506H63.9305V6.16092C64.731 7.86585 65.1245 9.7338 65.1245 11.7919C65.1245 13.8501 64.731 15.7248 63.9305 17.4229V23.2374H70.5583V11.9278C70.5583 9.88323 71.0535 8.34812 72.044 7.30886C73.0412 6.27639 74.3708 5.76016 76.0464 5.76016C77.5456 5.76016 78.6921 6.20168 79.4858 7.09829C80.2795 7.99491 80.673 9.34662 80.673 11.167V23.2509H87.3075V10.1413C87.3143 6.78583 86.4392 4.2658 84.6958 2.56767Z" fill="black"/>
<path d="M105.8 0.34642V2.77136C104.152 0.923785 101.872 0 98.9554 0C96.8049 0 94.8512 0.48227 93.1145 1.44681C91.3711 2.41135 90.0075 3.78344 89.0103 5.57668C88.0199 7.36311 87.5247 9.42804 87.5247 11.7918C87.5247 14.1557 88.0199 16.2206 89.0103 18.007C90.0075 19.8003 91.3711 21.1723 93.1145 22.1369C94.858 23.1014 96.8049 23.5837 98.9554 23.5837C102.076 23.5837 104.457 22.592 106.105 20.6018V23.2373H112.435V0.34642H105.8ZM104.267 16.4176C103.161 17.5655 101.771 18.1429 100.095 18.1429C98.3923 18.1429 96.9949 17.5655 95.8891 16.4176C94.7833 15.2696 94.2271 13.7277 94.2271 11.7986C94.2271 9.86956 94.7833 8.32765 95.8891 7.17971C96.9949 6.03177 98.3923 5.45441 100.095 5.45441C101.771 5.45441 103.161 6.03177 104.267 7.17971C105.373 8.32765 105.929 9.86956 105.929 11.7986C105.929 13.7277 105.373 15.2696 104.267 16.4176Z" fill="black"/>
<path d="M150.397 2.54045C148.708 0.849111 146.435 0.00683594 143.579 0.00683594C141.876 0.00683594 140.309 0.332878 138.885 0.984962C137.453 1.64384 136.273 2.56083 135.337 3.75632C134.543 2.54045 133.492 1.60988 132.189 0.964584C130.887 0.326085 129.421 0.00683594 127.814 0.00683594C126.342 0.00683594 124.985 0.25816 123.75 0.774393C122.515 1.28383 121.478 2.02422 120.623 2.98876V0.346463H114.287V23.2441H120.921V11.7579C120.921 9.76772 121.369 8.27336 122.278 7.26806C123.187 6.26277 124.401 5.76012 125.935 5.76012C128.824 5.76012 130.269 7.56014 130.269 11.167V23.2509H136.897V11.7579C136.897 9.76772 137.352 8.27336 138.261 7.26806C139.163 6.26277 140.398 5.76012 141.951 5.76012C143.342 5.76012 144.407 6.20163 145.16 7.09825C145.913 7.99486 146.286 9.34658 146.286 11.167V23.2509H152.921V10.1413C152.927 6.75862 152.079 4.2318 150.397 2.54045Z" fill="black"/>
<path d="M154.372 0.346191V23.2438H161V0.346191H154.372Z" fill="black"/>
</svg>
