<svg version="1.1" id="Слой_1" xmlns="http://www.w3.org/2000/svg" xmlns:xlink="http://www.w3.org/1999/xlink" x="0px" y="0px" viewBox="0 0 595.3 192.3" style="enable-background:new 0 0 595.3 192.3;" xml:space="preserve">
<style type="text/css">
	.st0{fill-rule:evenodd;clip-rule:evenodd;}
</style>
<g>
	<path d="M244.5,66c-3-1.4-6.2-2-9.4-2.4c-4.5-0.5-9-1.1-13.5-1.6c-1.5-0.2-3.1-0.4-4.5-0.9c-1.2-0.4-2.3-1.1-2.9-2.1
		c-0.6-1.1-0.6-2.4-0.3-3.6c0.4-1.5,1.7-2.7,3.1-3.4c2.3-1.1,4.9-1.4,7.4-1.5c4.8-0.3,9.8,0.1,14.4,1.6c2.6,0.8,5.1,2.1,7.4,3.6
		c1.4-2.2,2.8-4.3,4.2-6.5c-3.8-2.6-8-4.6-12.5-5.5c-3.2-0.8-6.5-1-9.7-1.1h-2.1c-3.7,0.1-7.5,0.6-11.1,1.9c-3.2,1.1-6.2,3-8.1,5.8
		c-2,2.9-2.4,6.6-1.6,10c0.4,2.1,1.5,4.1,3.1,5.6c1.7,1.6,3.9,2.6,6.1,3.3c2.3,0.7,4.7,1.1,7.2,1.3c4.5,0.5,8.9,1,13.4,1.5
		c1.7,0.2,3.5,0.4,5.1,1c1.2,0.5,2.3,1.3,2.9,2.5c0.8,1.8,0.7,4.2-0.6,5.8c-1.3,1.6-3.2,2.5-5.1,3c-4.3,1.2-8.9,1.1-13.3,0.7
		c-5.9-0.5-11.5-2.8-16.4-6.1c-1.4,2.3-2.8,4.6-4.2,6.8c3.8,2.7,8,4.9,12.6,6c3.6,1,7.3,1.3,11,1.4l1.7,0c5.4-0.2,11-0.8,15.8-3.3
		c3.2-1.6,6-4.5,7-8c0.9-3.5,0.7-7.4-1.1-10.6C249,68.8,246.9,67.1,244.5,66"></path>
	<path d="M573.1,71.4c-1.2-2.2-3.2-4-5.5-5.1c-3.1-1.6-6.6-2.3-10-2.6c-4.5-0.5-9-1.1-13.5-1.6c-1.9-0.2-3.9-0.5-5.6-1.3
		c-1-0.5-1.9-1.4-2.2-2.5c-0.3-1.2-0.2-2.5,0.3-3.6c0.7-1.3,1.9-2.1,3.2-2.7c2.4-1,4.9-1.2,7.4-1.4c4-0.1,8,0.1,11.9,1
		c3.4,0.8,6.5,2.4,9.4,4.2c1.4-2.2,2.8-4.3,4.2-6.5c-3-2-6.2-3.7-9.7-4.8c-4-1.3-8.3-1.7-12.5-1.8h-2.1c-4.2,0.1-8.5,0.7-12.3,2.4
		c-2.8,1.1-5.4,2.9-7,5.5c-2,3.1-2.3,7.1-1.3,10.6c0.7,2.6,2.6,4.8,4.9,6.2c3,1.8,6.6,2.5,10,2.9c5.1,0.6,10.2,1.1,15.3,1.7
		c1.8,0.2,3.7,0.5,5.3,1.4c1,0.6,1.8,1.4,2.2,2.5c0.6,1.7,0.5,3.7-0.6,5.1c-1,1.4-2.6,2.3-4.2,2.9c-2.8,1-5.8,1.3-8.8,1.4
		c-4.3,0-8.6-0.4-12.7-1.7c-3.3-1.1-6.5-2.7-9.4-4.7c-1.4,2.3-2.8,4.6-4.2,6.8c3,2.1,6.2,3.9,9.7,5.1c4.4,1.6,9.2,2.1,13.9,2.2
		l1.7,0c5-0.1,10.1-0.7,14.7-2.8c2.9-1.3,5.6-3.4,7.1-6.2c1.1-2.1,1.5-4.5,1.5-6.8C574.5,75.2,574,73.1,573.1,71.4"></path>
	<path d="M379,43.9l-0.1-0.1c-2.9-0.1-5.8,0-8.7,0c0,1,0,1.9,0,2.9c0,15.1,0,30.1,0,45.1c14.5,0,28.9,0,43.4,0c0-2.7,0-5.4,0-8H379
		C379,70.5,379,57.2,379,43.9"></path>
	<path d="M506.8,65.6c5-7.3,10-14.6,15-21.9c-3.3,0-6.7,0-10,0c-0.5,0.3-0.7,0.9-1,1.4c-3.9,5.7-7.9,11.4-11.7,17.2
		c-5.6,0-11.2,0-16.7,0c0-6.2,0-12.4,0-18.6c-2.9,0-5.8,0-8.8,0c0,16,0,32,0,48c2.9,0,5.9,0,8.8,0V70.3c5.7,0,11.3,0,17,0
		c4.5,7.1,8.9,14.3,13.4,21.4l10.4,0c-5.5-8.6-10.9-17.1-16.4-25.6L506.8,65.6z"></path>
	<path d="M306.9,51.7v-8c-16.5,0-33.1,0-49.6,0c0,2.7,0,5.4,0,8h20.4c0,13.3,0,26.7,0,40c2.9,0,5.9,0,8.9,0c0-13.3,0-26.7,0-40.1
		C293.3,51.8,300.1,51.7,306.9,51.7"></path>
	<path d="M429.5,83.7c0-4.2,0-10.2,0-10.2l30.8-9.5h-30.7c0-3.9,0-8.4,0-12.3c11.4,0,22.7,0,34.1,0c0-2.6,0-5.3,0-8
		c-14.3,0-28.6,0-43,0c0,16,0,32,0,48l44.3,0c0-2.7,0-5.4,0-8.1C453.1,83.7,441.3,83.7,429.5,83.7"></path>
	<path d="M325.6,43.7c-7,16-14,32-21,48c3.2,0,9.4,0,9.4,0l3.5-8.1l28.4-8.8h-24.7c2.5-6,7.2-17.3,9.7-23.2c1.8,0,3.7,0,5.5,0
		c3.4,8.2,15.8,37.5,16.9,40.1c3.1,0,6.2,0,9.3,0c-6.8-16-13.6-32-20.4-48C336.7,43.8,331.1,43.8,325.6,43.7"></path>
	<path d="M121.8,99.9l-34.6,48.9v0v32.3c0,0.1,0.1,0.1,0.1,0.1l59-30.2c4.5-2.3,7.3-6.9,7.3-12v-26v-1.1v-26c0-5.1-2.8-9.7-7.3-12
		l-59-30.2c-0.1,0-0.1,0-0.1,0.1v26.6c0,3.5,1.9,6.7,5,8.2l28,14.3C122.7,94.1,123.5,97.5,121.8,99.9 M52.5,92.4
		c-1.7,2.4-0.9,5.8,1.7,7.1l28,14.3c3.1,1.6,5,4.7,5,8.2v26.6c0,0.1-0.1,0.1-0.1,0.1l-59-30.2c-4.5-2.3-7.3-6.9-7.3-12v-26v-1.1v-26
		c0-5.1,2.8-9.7,7.3-12l59-30.2c0.1,0,0.1,0,0.1,0.1v32.3c0,0,0,0,0,0.1L52.5,92.4z"></path>
	<g>
		<path d="M221.1,149c-3.7,0.1-7.4-1.1-10.2-3.5c-4.9-4.3-5.4-11.7-1.1-16.6c0.3-0.4,0.7-0.7,1.1-1.1c2.9-2.4,6.5-3.6,10.2-3.5
			c3.7-0.2,7.4,1.1,10.3,3.5c4.9,4.3,5.4,11.7,1.1,16.6c-0.3,0.4-0.7,0.8-1.1,1.1C228.5,147.9,224.8,149.1,221.1,149z M221.1,145.6
			c2.8,0.1,5.5-0.8,7.6-2.5c3.5-3,4-8.3,1-11.9c-0.3-0.3-0.6-0.7-1-1c-2.1-1.7-4.8-2.6-7.6-2.5c-2.7-0.1-5.4,0.8-7.6,2.5
			c-3.5,3.1-3.9,8.5-0.8,12c0.3,0.3,0.5,0.6,0.8,0.8C215.7,144.8,218.3,145.7,221.1,145.6z"></path>
		<path d="M244.9,137.5v10.7h-3.7V125h21.5v3.4h-17.8v5.8h11.5v3.3L244.9,137.5z"></path>
		<path d="M271.1,137.5v10.7h-3.6V125H289v3.4h-17.8v5.8h11.5v3.3L271.1,137.5z"></path>
		<path d="M293.8,148.2v-23.3h3.7v23.3H293.8z"></path>
		<path d="M330.1,142.6c-1.3,2-3.1,3.7-5.2,4.8c-2.3,1.1-4.8,1.7-7.4,1.6c-3.7,0.1-7.2-1.1-10-3.4c-4.9-4.3-5.3-11.8-1-16.7
			c0.3-0.3,0.6-0.7,1-1c2.8-2.4,6.4-3.7,10-3.6c2.4,0,4.7,0.5,6.9,1.4c2,0.9,3.7,2.3,5,4l-2.9,2c-1-1.4-2.3-2.4-3.8-3.1
			c-1.6-0.7-3.4-1.1-5.2-1c-2.7-0.1-5.3,0.8-7.4,2.5c-3.5,3-3.9,8.3-0.9,11.8c0.3,0.3,0.6,0.6,0.9,0.9c2.1,1.7,4.7,2.6,7.4,2.5
			c3.9,0.1,7.5-1.8,9.6-5L330.1,142.6z"></path>
		<path d="M336.2,148.2v-23.3h3.7v23.3H336.2z"></path>
		<path d="M343.5,148.2l11.8-23.3h2.3l11.9,23.3h-3.9l-3-5.9h-12.3l-3,5.9H343.5z M352,139.3h9.1l-4.5-8.9L352,139.3z"></path>
		<path d="M373,148.2V125h3.7v19.9H394v3.3H373z"></path>
		<path d="M433.3,145.3l1.8-3.1c1.6,1.1,3.4,1.9,5.2,2.5c1.7,0.6,3.6,0.9,5.4,0.9c1.8,0.1,3.5-0.4,5-1.3c1.2-0.7,1.9-1.9,1.9-3.3
			c0.1-1.2-0.6-2.4-1.7-3c-1.7-0.8-3.6-1.1-5.5-1.1c-4.2-0.1-7.1-0.6-8.7-1.5c-1.6-1-2.5-2.8-2.4-4.7c0-2,1-3.8,2.6-4.8
			c2.1-1.3,4.5-2,7-1.8c2,0,3.9,0.3,5.8,0.8c1.9,0.6,3.7,1.4,5.4,2.5l-1.8,3.2c-1.4-1-3-1.8-4.7-2.3c-1.5-0.5-3.2-0.8-4.8-0.8
			c-1.5-0.1-2.9,0.3-4.2,0.9c-0.9,0.5-1.5,1.4-1.6,2.4c0,1,0.6,1.9,1.6,2.2c1.8,0.5,3.7,0.8,5.6,0.7c2.9-0.2,5.8,0.5,8.4,1.9
			c1.9,1.2,3,3.4,2.8,5.7c0,2.2-1.1,4.2-2.9,5.5c-2.2,1.5-4.8,2.3-7.5,2.2c-2.3,0-4.5-0.3-6.7-1
			C437.2,147.4,435.2,146.5,433.3,145.3z"></path>
		<path d="M468.4,148.2v-20h-9.8V125h23.3v3.2H472v20H468.4z"></path>
		<path d="M497.7,149c-3.7,0.1-7.4-1.1-10.2-3.5c-4.9-4.3-5.4-11.7-1.1-16.5c0.3-0.4,0.7-0.8,1.1-1.1c6.1-4.6,14.5-4.6,20.5,0
			c4.9,4.3,5.3,11.7,1,16.6c-0.3,0.4-0.7,0.7-1,1C505.1,147.9,501.4,149.1,497.7,149z M497.7,145.6c2.8,0.1,5.5-0.8,7.6-2.5
			c3.5-3,3.9-8.4,0.9-11.9c-0.3-0.3-0.6-0.6-0.9-0.9c-2.1-1.7-4.8-2.6-7.6-2.5c-2.7-0.1-5.4,0.8-7.6,2.5c-3.5,3.1-3.9,8.4-0.9,12
			c0.3,0.3,0.6,0.6,0.9,0.9C492.3,144.8,494.9,145.7,497.7,145.6z"></path>
		<path d="M521.6,138.1v10.2h-3.7V125h16c2-0.1,4,0.5,5.6,1.7c1.3,1.2,2.1,2.9,2,4.7c0,1.6-0.5,3.1-1.6,4.3c-1.1,1.2-2.5,2-4.2,2.2
			l6.5,10.3h-3.9l-6.6-10.2H521.6z M521.6,134.7h12.4c1,0.1,2-0.2,2.9-0.8c0.7-0.6,1-1.5,1-2.3c0.1-0.9-0.3-1.7-1-2.3
			c-0.8-0.6-1.9-0.9-2.9-0.8h-12.4V134.7z"></path>
		<path d="M548.1,148.2V125H570v3.4h-18.2v5.8h11.9v3.3h-11.9v7.4h19.2v3.3L548.1,148.2z"></path>
		<path class="st0" d="M421.2,135.9l-6.4-3.2c-0.7-0.4-1.1-1.1-1.1-1.8v-6.1l-8,11.1c-0.3,0.5-0.2,1.2,0.3,1.5c0,0,0.1,0,0.1,0.1
			l6.4,3.2c0.7,0.3,1.1,1,1.1,1.8v6.1l8-11.1c0.3-0.5,0.2-1.2-0.3-1.5C421.3,135.9,421.2,135.9,421.2,135.9z"></path>
	</g>
</g>
</svg>